<mxfile host="Electron" modified="2024-05-15T12:16:05.815Z" agent="Mozilla/5.0 (Windows NT 10.0; Win64; x64) AppleWebKit/537.36 (KHTML, like Gecko) draw.io/23.1.5 Chrome/120.0.6099.109 Electron/28.1.0 Safari/537.36" etag="5FSJeBzkqzP1gAIzfY1V" version="23.1.5" type="device">
  <diagram name="Page-1" id="OGsm8ukfqOmUfBKiEBXN">
    <mxGraphModel dx="989" dy="577" grid="1" gridSize="10" guides="1" tooltips="1" connect="1" arrows="1" fold="1" page="1" pageScale="1" pageWidth="827" pageHeight="1169" math="0" shadow="0">
      <root>
        <mxCell id="0" />
        <mxCell id="1" parent="0" />
        <mxCell id="46xWUxOLhVpRb5yckR-c-29" value="" style="rounded=0;whiteSpace=wrap;html=1;" parent="1" vertex="1">
          <mxGeometry x="50" y="110" width="630" height="530" as="geometry" />
        </mxCell>
        <mxCell id="46xWUxOLhVpRb5yckR-c-1" value="ML Engineer" style="shape=umlActor;verticalLabelPosition=bottom;verticalAlign=top;html=1;outlineConnect=0;" parent="1" vertex="1">
          <mxGeometry x="90" y="460" width="30" height="60" as="geometry" />
        </mxCell>
        <mxCell id="46xWUxOLhVpRb5yckR-c-5" value="RTNNIgen" style="shape=umlFrame;whiteSpace=wrap;html=1;pointerEvents=0;width=90;height=30;" parent="1" vertex="1">
          <mxGeometry x="210" y="130" width="320" height="470" as="geometry" />
        </mxCell>
        <mxCell id="46xWUxOLhVpRb5yckR-c-17" value="" style="endArrow=none;html=1;rounded=0;exitX=1;exitY=0.3333333333333333;exitDx=0;exitDy=0;exitPerimeter=0;entryX=0;entryY=0.5;entryDx=0;entryDy=0;" parent="1" source="46xWUxOLhVpRb5yckR-c-1" target="46xWUxOLhVpRb5yckR-c-19" edge="1">
          <mxGeometry width="50" height="50" relative="1" as="geometry">
            <mxPoint x="560" y="350" as="sourcePoint" />
            <mxPoint x="249.03999999999996" y="555.02" as="targetPoint" />
          </mxGeometry>
        </mxCell>
        <mxCell id="46xWUxOLhVpRb5yckR-c-18" value="Build model for PLC" style="ellipse;whiteSpace=wrap;html=1;fillColor=#d0cee2;strokeColor=#56517e;" parent="1" vertex="1">
          <mxGeometry x="220" y="400" width="120" height="50" as="geometry" />
        </mxCell>
        <mxCell id="46xWUxOLhVpRb5yckR-c-19" value="Update model weights" style="ellipse;whiteSpace=wrap;html=1;fillColor=#d0cee2;strokeColor=#56517e;" parent="1" vertex="1">
          <mxGeometry x="260" y="510" width="110" height="50" as="geometry" />
        </mxCell>
        <mxCell id="46xWUxOLhVpRb5yckR-c-20" value="&amp;lt;&amp;lt;include&amp;gt;&amp;gt;" style="html=1;verticalAlign=bottom;labelBackgroundColor=none;endArrow=open;endFill=0;dashed=1;rounded=0;" parent="1" source="46xWUxOLhVpRb5yckR-c-18" target="46xWUxOLhVpRb5yckR-c-19" edge="1">
          <mxGeometry x="0.6113" y="28" width="160" relative="1" as="geometry">
            <mxPoint x="500" y="330" as="sourcePoint" />
            <mxPoint x="660" y="330" as="targetPoint" />
            <mxPoint as="offset" />
          </mxGeometry>
        </mxCell>
        <mxCell id="46xWUxOLhVpRb5yckR-c-21" value="Run model inference" style="ellipse;whiteSpace=wrap;html=1;fillColor=#d0cee2;strokeColor=#56517e;" parent="1" vertex="1">
          <mxGeometry x="390" y="450" width="110" height="50" as="geometry" />
        </mxCell>
        <mxCell id="46xWUxOLhVpRb5yckR-c-24" value="" style="endArrow=none;html=1;rounded=0;exitX=0.058;exitY=0.72;exitDx=0;exitDy=0;exitPerimeter=0;entryX=1;entryY=0.3333333333333333;entryDx=0;entryDy=0;entryPerimeter=0;" parent="1" source="46xWUxOLhVpRb5yckR-c-18" target="46xWUxOLhVpRb5yckR-c-1" edge="1">
          <mxGeometry width="50" height="50" relative="1" as="geometry">
            <mxPoint x="100" y="390" as="sourcePoint" />
            <mxPoint x="289" y="560" as="targetPoint" />
          </mxGeometry>
        </mxCell>
        <mxCell id="46xWUxOLhVpRb5yckR-c-25" value="Initialize model" style="ellipse;whiteSpace=wrap;html=1;fillColor=#d0cee2;strokeColor=#56517e;" parent="1" vertex="1">
          <mxGeometry x="380" y="340" width="120" height="50" as="geometry" />
        </mxCell>
        <mxCell id="46xWUxOLhVpRb5yckR-c-27" value="&amp;lt;&amp;lt;include&amp;gt;&amp;gt;" style="html=1;verticalAlign=bottom;labelBackgroundColor=none;endArrow=open;endFill=0;dashed=1;rounded=0;exitX=0.5;exitY=0;exitDx=0;exitDy=0;entryX=0.5;entryY=1;entryDx=0;entryDy=0;" parent="1" source="46xWUxOLhVpRb5yckR-c-21" target="46xWUxOLhVpRb5yckR-c-25" edge="1">
          <mxGeometry x="-0.2414" y="33" width="160" relative="1" as="geometry">
            <mxPoint x="575" y="348" as="sourcePoint" />
            <mxPoint x="565" y="580" as="targetPoint" />
            <mxPoint as="offset" />
          </mxGeometry>
        </mxCell>
        <mxCell id="dun-VHuZu8ddW3UaoiJL-1" value="PLC Engineer" style="shape=umlActor;verticalLabelPosition=bottom;verticalAlign=top;html=1;outlineConnect=0;" vertex="1" parent="1">
          <mxGeometry x="90" y="200" width="30" height="60" as="geometry" />
        </mxCell>
        <mxCell id="dun-VHuZu8ddW3UaoiJL-2" value="Translate to ST code" style="ellipse;whiteSpace=wrap;html=1;fillColor=#d0cee2;strokeColor=#56517e;" vertex="1" parent="1">
          <mxGeometry x="240" y="310" width="120" height="50" as="geometry" />
        </mxCell>
        <mxCell id="dun-VHuZu8ddW3UaoiJL-3" value="&amp;lt;&amp;lt;include&amp;gt;&amp;gt;" style="html=1;verticalAlign=bottom;labelBackgroundColor=none;endArrow=open;endFill=0;dashed=1;rounded=0;exitX=0.5;exitY=0;exitDx=0;exitDy=0;entryX=0.396;entryY=1.032;entryDx=0;entryDy=0;entryPerimeter=0;" edge="1" parent="1" source="46xWUxOLhVpRb5yckR-c-18" target="dun-VHuZu8ddW3UaoiJL-2">
          <mxGeometry x="-0.7931" y="31" width="160" relative="1" as="geometry">
            <mxPoint x="485" y="360" as="sourcePoint" />
            <mxPoint x="424" y="219" as="targetPoint" />
            <mxPoint as="offset" />
          </mxGeometry>
        </mxCell>
        <mxCell id="dun-VHuZu8ddW3UaoiJL-4" value="Add to PLC project" style="ellipse;whiteSpace=wrap;html=1;fillColor=#d0cee2;strokeColor=#56517e;" vertex="1" parent="1">
          <mxGeometry x="240" y="205" width="120" height="50" as="geometry" />
        </mxCell>
        <mxCell id="dun-VHuZu8ddW3UaoiJL-5" value="" style="endArrow=none;html=1;rounded=0;exitX=0;exitY=0.5;exitDx=0;exitDy=0;entryX=1;entryY=0.3333333333333333;entryDx=0;entryDy=0;entryPerimeter=0;" edge="1" parent="1" source="dun-VHuZu8ddW3UaoiJL-4" target="dun-VHuZu8ddW3UaoiJL-1">
          <mxGeometry width="50" height="50" relative="1" as="geometry">
            <mxPoint x="237" y="446" as="sourcePoint" />
            <mxPoint x="130" y="490" as="targetPoint" />
          </mxGeometry>
        </mxCell>
        <mxCell id="dun-VHuZu8ddW3UaoiJL-6" value="" style="shape=mxgraph.signs.tech.computer;html=1;pointerEvents=1;fillColor=#000000;strokeColor=none;verticalLabelPosition=bottom;verticalAlign=top;align=center;" vertex="1" parent="1">
          <mxGeometry x="580" y="370" width="50" height="44" as="geometry" />
        </mxCell>
        <mxCell id="dun-VHuZu8ddW3UaoiJL-7" value="PLC" style="text;html=1;align=center;verticalAlign=middle;whiteSpace=wrap;rounded=0;" vertex="1" parent="1">
          <mxGeometry x="575" y="414" width="60" height="30" as="geometry" />
        </mxCell>
        <mxCell id="dun-VHuZu8ddW3UaoiJL-8" value="" style="endArrow=none;html=1;rounded=0;exitX=-0.057;exitY=0.702;exitDx=0;exitDy=0;entryX=1;entryY=0;entryDx=0;entryDy=0;exitPerimeter=0;" edge="1" parent="1" source="dun-VHuZu8ddW3UaoiJL-6" target="46xWUxOLhVpRb5yckR-c-21">
          <mxGeometry width="50" height="50" relative="1" as="geometry">
            <mxPoint x="250" y="240" as="sourcePoint" />
            <mxPoint x="130" y="230" as="targetPoint" />
          </mxGeometry>
        </mxCell>
      </root>
    </mxGraphModel>
  </diagram>
</mxfile>
